<svg width="21" height="22" viewBox="0 0 21 22" fill="none" xmlns="http://www.w3.org/2000/svg">
<mask id="mask0_575_3695" style="mask-type:alpha" maskUnits="userSpaceOnUse" x="0" y="0" width="21" height="22">
<rect y="0.75" width="20.5" height="20.5" fill="#D9D9D9"/>
</mask>
<g mask="url(#mask0_575_3695)">
<path d="M8.34386 14.5908C6.78302 14.5908 5.4681 14.0564 4.39911 12.9876C3.32998 11.9188 2.79541 10.6126 2.79541 9.06885C2.79541 7.52523 3.32983 6.21899 4.39868 5.15014C5.46739 4.0813 6.77227 3.54688 8.31333 3.54688C9.85439 3.54688 11.1615 4.0813 12.2348 5.15014C13.3081 6.21899 13.8447 7.5253 13.8447 9.06906C13.8447 9.68549 13.7482 10.2823 13.5553 10.8594C13.3624 11.4365 13.0799 11.9563 12.7076 12.4187L17.7273 17.4156C17.8682 17.5522 17.9401 17.7247 17.9428 17.933C17.9455 18.1411 17.8737 18.3151 17.7273 18.4549C17.581 18.5947 17.4081 18.6646 17.2088 18.6646C17.0095 18.6646 16.8374 18.5914 16.6925 18.445L11.7082 13.4608C11.2732 13.8242 10.7543 14.1034 10.1515 14.2983C9.54859 14.4933 8.94605 14.5908 8.34386 14.5908ZM8.32165 13.1475C9.47108 13.1475 10.4384 12.7549 11.2237 11.9698C12.0088 11.1845 12.4014 10.2176 12.4014 9.06885C12.4014 7.92014 12.0092 6.95322 11.225 6.1681C10.4406 5.38284 9.47321 4.9902 8.32294 4.9902C7.16782 4.9902 6.19834 5.38284 5.4145 6.1681C4.63066 6.95322 4.23874 7.92014 4.23874 9.06885C4.23874 10.2176 4.63066 11.1845 5.4145 11.9698C6.19834 12.7549 7.16739 13.1475 8.32165 13.1475Z" fill="#C7C7C7"/>
</g>
</svg>
