<svg width="23" height="24" viewBox="0 0 23 24" fill="none" xmlns="http://www.w3.org/2000/svg">
<mask id="mask0_575_3714" style="mask-type:alpha" maskUnits="userSpaceOnUse" x="0" y="0" width="23" height="24">
<rect y="0.5" width="23" height="23" fill="#D9D9D9"/>
</mask>
<g mask="url(#mask0_575_3714)">
<path d="M11.5546 11.4481L6.60268 16.7756C6.43928 16.9511 6.24626 17.0391 6.0236 17.0396C5.80111 17.04 5.60505 16.9434 5.43543 16.7499C5.27123 16.5677 5.19313 16.3673 5.20111 16.1487C5.2091 15.9302 5.29519 15.7241 5.45938 15.5306L10.3874 10.2288L5.43543 4.87561C5.2773 4.70011 5.19672 4.50145 5.19369 4.27963C5.19065 4.05764 5.27123 3.84989 5.43543 3.65638C5.60505 3.47436 5.79959 3.38189 6.01905 3.37898C6.23851 3.37606 6.43305 3.4657 6.60268 3.64789L11.5546 8.97514L16.4587 3.64789C16.6221 3.47239 16.8151 3.38438 17.0377 3.38386C17.2602 3.38352 17.4563 3.47436 17.6259 3.65638C17.7901 3.84989 17.8682 4.05601 17.8602 4.27474C17.8522 4.4933 17.7715 4.69359 17.618 4.87561L12.6898 10.2288L17.618 15.5306C17.7654 15.7003 17.8446 15.9004 17.8557 16.131C17.8667 16.3614 17.7901 16.5677 17.6259 16.7499C17.4563 16.9434 17.2617 17.0416 17.0423 17.0445C16.8228 17.0472 16.6283 16.9576 16.4587 16.7756L11.5546 11.4481Z" fill="#C7C7C7"/>
</g>
</svg>
