<svg width="33" height="33" viewBox="0 0 33 33" fill="none" xmlns="http://www.w3.org/2000/svg">
<mask id="mask0_565_3302" style="mask-type:alpha" maskUnits="userSpaceOnUse" x="0" y="0" width="33" height="33">
<rect width="33" height="33" fill="#D9D9D9"/>
</mask>
<g mask="url(#mask0_565_3302)">
<path d="M16.1267 18.5775L9.02171 26.2213C8.78728 26.4731 8.51033 26.5994 8.19087 26.6001C7.87164 26.6006 7.59034 26.4621 7.34696 26.1844C7.11138 25.923 6.99932 25.6355 7.01077 25.3219C7.02223 25.0083 7.14575 24.7127 7.38134 24.4351L14.4519 16.8282L7.34696 9.14744C7.12009 8.89564 7.00447 8.61061 7.00012 8.29234C6.99576 7.97384 7.11138 7.67576 7.34696 7.39811C7.59034 7.13695 7.86946 7.00428 8.18434 7.0001C8.49921 6.99591 8.77834 7.12452 9.02171 7.38593L16.1267 15.0294L23.1629 7.38593C23.3973 7.13412 23.6743 7.00785 23.9937 7.00711C24.313 7.00662 24.5943 7.13695 24.8377 7.39811C25.0732 7.67576 25.1853 7.9715 25.1738 8.28533C25.1624 8.59891 25.0465 8.88628 24.8263 9.14744L17.7554 16.8282L24.8263 24.4351C25.0378 24.6785 25.1515 24.9656 25.1673 25.2964C25.1831 25.627 25.0732 25.923 24.8377 26.1844C24.5943 26.4621 24.3152 26.603 24.0003 26.6072C23.6854 26.6111 23.4063 26.4825 23.1629 26.2213L16.1267 18.5775Z" fill="#1F1F1F"/>
</g>
</svg>
