<svg width="22" height="22" viewBox="0 0 22 22" fill="none" xmlns="http://www.w3.org/2000/svg">
<path d="M17.753 15.125H13.75C13.6198 15.125 13.511 15.081 13.4236 14.993C13.3362 14.905 13.2922 14.7959 13.2916 14.6657C13.291 14.5356 13.335 14.4268 13.4236 14.3394C13.5122 14.252 13.621 14.2083 13.75 14.2083H17.753L16.17 12.5895C16.0844 12.5039 16.0447 12.4 16.0508 12.2778C16.0569 12.1544 16.1043 12.0471 16.1929 11.9561C16.2748 11.8723 16.379 11.8305 16.5055 11.8305C16.632 11.8305 16.7383 11.8733 16.8245 11.9588L18.996 14.1478C19.0724 14.2248 19.1274 14.3073 19.161 14.3953C19.1959 14.4827 19.2133 14.5731 19.2133 14.6666C19.2133 14.7601 19.1962 14.8509 19.162 14.9389C19.1277 15.0269 19.0724 15.1088 18.996 15.1846L16.807 17.3745C16.7215 17.46 16.617 17.5007 16.4935 17.4964C16.3701 17.4921 16.2632 17.4445 16.1727 17.3534C16.089 17.2697 16.0471 17.1685 16.0471 17.05C16.0471 16.9314 16.0899 16.8291 16.1755 16.7429L17.753 15.125ZM3.77296 15.125C3.36535 15.125 3.01671 14.9798 2.72704 14.6896C2.43738 14.3993 2.29224 14.051 2.29163 13.6446V4.68873C2.29163 4.28173 2.43676 3.9334 2.72704 3.64373C3.01732 3.35406 3.36565 3.20892 3.77204 3.20831H15.4779C15.8849 3.20831 16.2332 3.35345 16.5229 3.64373C16.8125 3.93401 16.9577 4.28234 16.9583 4.68873V9.18223C16.9583 9.29773 16.9106 9.40315 16.8153 9.49848C16.72 9.59381 16.6124 9.64117 16.4926 9.64056C16.3643 9.64056 16.2573 9.59687 16.1718 9.50948C16.085 9.42148 16.0416 9.3124 16.0416 9.18223V4.80973L9.53329 9.51956L3.20829 4.81431V13.6446C3.20829 13.809 3.26115 13.944 3.36688 14.0497C3.4726 14.1555 3.60796 14.2083 3.77296 14.2083H11.0155C11.1457 14.2083 11.2548 14.2523 11.3428 14.3403C11.4308 14.4283 11.4745 14.5374 11.4739 14.6676C11.4733 14.7977 11.4296 14.9065 11.3428 14.9939C11.256 15.0813 11.1469 15.125 11.0155 15.125H3.77296ZM3.79679 4.12498L9.53329 8.40215L15.4421 4.12498H3.79679Z" fill="white"/>
</svg>
