<svg width="152" height="152" viewBox="0 0 152 152" fill="none" xmlns="http://www.w3.org/2000/svg">
<g clip-path="url(#clip0_216_2438)">
<path d="M18.3815 58.4582C18.7455 58.553 19.0402 58.7071 19.2647 58.921C19.4818 59.1331 19.6401 59.3764 19.7399 59.6512C19.8415 59.9186 19.8909 60.2079 19.8878 60.5181C19.887 60.821 19.8494 61.1149 19.7756 61.399C19.7 61.6905 19.6056 61.9344 19.4924 62.1304C19.379 62.3267 19.2743 62.5056 19.1778 62.667C19.1111 62.7742 19.0548 62.8722 19.0082 62.9614C18.9543 63.0483 18.9153 63.1393 18.8907 63.2343L17.6446 62.9104L17.6729 62.8011C17.95 62.8732 18.1901 62.8616 18.3938 62.7668C18.592 62.6625 18.7594 62.5272 18.8958 62.3604C19.0327 62.1937 19.1402 62.0194 19.2184 61.8374C19.2896 61.6537 19.3364 61.5182 19.3592 61.4306C19.4406 61.1175 19.4669 60.8365 19.4382 60.5879C19.4023 60.3374 19.33 60.1202 19.2225 59.9367C19.1072 59.7514 18.967 59.602 18.8018 59.4893C18.6388 59.369 18.4623 59.2843 18.2728 59.2351C18.0323 59.1725 17.8187 59.1715 17.6321 59.2318C17.4378 59.2903 17.2573 59.3872 17.0896 59.5225C16.9241 59.6509 16.7702 59.8091 16.6279 59.9978C16.4857 60.1862 16.3425 60.3786 16.1981 60.5743C16.0391 60.7975 15.8773 61.0161 15.7128 61.2302C15.5483 61.4439 15.3684 61.6269 15.1737 61.7784C14.9716 61.9282 14.7532 62.0345 14.519 62.0983C14.2771 62.1598 14.0034 62.151 13.6973 62.0713C13.3769 61.9881 13.1162 61.8542 12.9149 61.6698C12.7066 61.4836 12.5527 61.2684 12.4526 61.0247C12.3544 60.7737 12.3032 60.5074 12.2983 60.2261C12.2882 59.9357 12.3193 59.6523 12.3913 59.3755C12.4406 59.186 12.5014 59.011 12.5741 58.8511C12.6395 58.6894 12.7102 58.5364 12.7866 58.3929C12.8478 58.2766 12.9044 58.163 12.9568 58.0523C13.0015 57.9393 13.0383 57.8282 13.0665 57.7189L14.1924 58.0116L14.1638 58.1208C13.7811 58.037 13.4874 58.12 13.2823 58.3701C13.0703 58.6184 12.8986 58.9938 12.7679 59.4964C12.6923 59.7879 12.681 60.0418 12.7337 60.2577C12.7809 60.4645 12.8635 60.6414 12.9808 60.7887C13.0908 60.9337 13.2239 61.0502 13.3803 61.1372C13.531 61.2155 13.6684 61.2706 13.7923 61.3028C13.9962 61.3556 14.1822 61.3575 14.3509 61.308C14.5211 61.251 14.6809 61.1602 14.83 61.0355C14.979 60.9109 15.1228 60.7619 15.2615 60.5879C15.4019 60.4065 15.5406 60.2168 15.6773 60.0189C15.8366 59.7961 16.0039 59.571 16.1794 59.3445C16.3548 59.1179 16.5484 58.927 16.7599 58.7722C16.973 58.6095 17.2124 58.4967 17.4778 58.4336C17.745 58.3628 18.0461 58.371 18.3815 58.4582Z" fill="white"/>
<path d="M18.9334 44.1051C18.6695 44.5958 18.5287 45.0715 18.5112 45.5325C18.4911 45.9833 18.5592 46.4045 18.7156 46.7965C18.8656 47.185 19.0841 47.5335 19.3711 47.8419C19.6617 48.1437 19.9796 48.3874 20.3241 48.5729C20.7152 48.7838 21.1406 48.9144 21.6007 48.9655C22.054 49.0126 22.4979 48.9823 22.9321 48.8742C23.3635 48.7559 23.765 48.5659 24.1367 48.3043C24.5018 48.0392 24.7967 47.6978 25.0217 47.2802C25.0859 47.1609 25.1476 47.0146 25.2067 46.8413C25.2694 46.6613 25.3071 46.472 25.3196 46.2738C25.3257 46.072 25.295 45.8672 25.227 45.6597C25.163 45.4455 25.0376 45.2412 24.8517 45.0469L24.9051 44.9477L26.0086 45.5417C25.9552 45.6413 25.9116 45.7544 25.8774 45.8815C25.8468 46.0018 25.8122 46.1372 25.7739 46.2876C25.7278 46.4848 25.6672 46.7001 25.5926 46.9339C25.5221 47.1607 25.4242 47.39 25.2992 47.6223C24.9888 48.1987 24.6162 48.6522 24.182 48.9827C23.7475 49.3133 23.2928 49.5386 22.8177 49.659C22.3422 49.7795 21.8666 49.8052 21.3904 49.7369C20.9075 49.6654 20.4608 49.5188 20.0495 49.2975C19.6386 49.0762 19.2702 48.7838 18.9444 48.4203C18.6185 48.0569 18.3767 47.64 18.2193 47.1707C18.0552 46.6973 17.9949 46.1821 18.0387 45.6241C18.0826 45.0665 18.2686 44.4824 18.5967 43.8728C18.7148 43.6539 18.8398 43.4692 18.9725 43.3182C19.1084 43.1605 19.2338 43.023 19.3488 42.9052C19.4354 42.8237 19.5101 42.7485 19.5728 42.6796C19.6324 42.6006 19.6837 42.5213 19.7263 42.4418L20.8302 43.0359L20.7764 43.1354C20.5497 43.0645 20.3412 43.0464 20.1518 43.0812C19.9553 43.112 19.7816 43.181 19.6302 43.2874C19.4823 43.3875 19.3506 43.5132 19.2346 43.6646C19.1159 43.8058 19.0154 43.9526 18.9334 44.1051Z" fill="white"/>
<path d="M32.2217 37.466L32.2597 37.4243L32.343 37.5005L31.2715 38.6778L31.1881 38.6019L31.226 38.5602C31.2612 38.5212 31.2777 38.4699 31.2747 38.406C31.2717 38.342 31.258 38.2789 31.2335 38.216C31.2144 38.1475 31.185 38.0851 31.1448 38.0284C31.0993 37.9667 31.0542 37.9154 31.0098 37.8748L26.5587 33.8237C26.5197 33.7881 26.4699 33.7532 26.4098 33.7187C26.3494 33.6842 26.2844 33.6604 26.2147 33.6478C26.15 33.6298 26.0883 33.6247 26.0301 33.6327C25.9662 33.6357 25.9164 33.6567 25.8812 33.6954L25.8432 33.7375L25.7595 33.6612L27.082 32.2081C27.5888 31.6515 28.0875 31.3214 28.5784 31.2184C29.0742 31.11 29.5339 31.2482 29.9567 31.6332C30.1682 31.8259 30.322 32.032 30.4176 32.251C30.5128 32.4597 30.5654 32.676 30.576 32.8993C30.5808 33.1175 30.5462 33.3403 30.4714 33.5676C30.3962 33.7842 30.2946 33.997 30.1658 34.2056L31.6315 34.4405C31.986 34.4981 32.3405 34.5509 32.6942 34.5982C33.0425 34.6405 33.3969 34.6932 33.7568 34.7558C33.8479 34.7678 33.9443 34.7793 34.0462 34.7905C34.153 34.7959 34.2545 34.7964 34.3501 34.7922C34.4508 34.782 34.5431 34.7644 34.6273 34.7392C34.7108 34.7033 34.7805 34.6547 34.8365 34.5935L34.9199 34.6694L34.5931 35.0286C34.3904 35.2513 34.1702 35.3866 33.9328 35.4351C33.6946 35.4732 33.46 35.4734 33.2292 35.4361C32.6339 35.3523 32.0326 35.2634 31.4262 35.1693C30.8245 35.0697 30.2285 34.9751 29.6382 34.8859C29.5769 34.9421 29.5107 35.0037 29.439 35.071C29.367 35.1276 29.2977 35.1816 29.2306 35.2328L31.5189 37.3154C31.5637 37.3561 31.6188 37.3959 31.6846 37.4354C31.7447 37.4699 31.8075 37.4964 31.8722 37.5144C31.9422 37.5275 32.0065 37.5348 32.0651 37.5375C32.129 37.5345 32.1811 37.5108 32.2217 37.466ZM26.8341 33.0514L28.9552 34.9819L28.9931 34.9402C29.0395 34.9008 29.1084 34.8361 29.2 34.7466C29.2912 34.6464 29.4026 34.5239 29.5345 34.3789C29.6409 34.2623 29.7356 34.1245 29.8188 33.9661C29.9012 33.7969 29.9515 33.6185 29.9696 33.4314C29.9869 33.2335 29.9588 33.0347 29.8854 32.8356C29.8174 32.6311 29.6774 32.4324 29.4658 32.24C29.2543 32.0473 29.0438 31.932 28.834 31.8939C28.6292 31.8505 28.4221 31.8653 28.2127 31.939C28.0078 32.0074 27.8006 32.129 27.5903 32.3042C27.38 32.4794 27.1659 32.6864 26.9479 32.9258L26.8341 33.0514Z" fill="white"/>
<path d="M40.3133 20.7764C40.8066 20.4578 41.306 20.2601 41.8125 20.1837C42.3149 20.101 42.7981 20.1201 43.2621 20.2417C43.7283 20.3527 44.1607 20.5569 44.5594 20.8552C44.9604 21.1427 45.2981 21.498 45.572 21.9217C45.8785 22.3958 46.0721 22.8893 46.1526 23.4021C46.2393 23.9107 46.2228 24.4054 46.1033 24.886C45.9838 25.3666 45.7747 25.8199 45.4767 26.2461C45.1806 26.6614 44.805 27.0164 44.3494 27.3108C43.8628 27.6254 43.3662 27.8212 42.8599 27.8972C42.3597 27.9696 41.8798 27.9484 41.4199 27.8334C40.9662 27.7139 40.5442 27.512 40.1535 27.2267C39.7628 26.9413 39.4348 26.5931 39.1689 26.1824C38.9076 25.7776 38.7227 25.3324 38.6148 24.8465C38.5025 24.354 38.4854 23.8633 38.5632 23.3736C38.6477 22.8796 38.8307 22.4073 39.1125 21.9561C39.3947 21.5048 39.7949 21.1116 40.3133 20.7764ZM44.2582 26.8992C44.6694 26.6064 44.9782 26.2723 45.1837 25.8972C45.3918 25.5118 45.5173 25.1168 45.5608 24.7124C45.6 24.3016 45.5659 23.9024 45.4584 23.5143C45.3576 23.1226 45.2049 22.7684 45.0004 22.4524C44.7757 22.1045 44.4855 21.7948 44.1303 21.5222C43.775 21.25 43.3884 21.0474 42.9706 20.9141C42.5488 20.7745 42.1163 20.7224 41.6731 20.7581C41.2318 20.783 40.8093 20.9266 40.4045 21.188C40.0126 21.4413 39.7191 21.7567 39.5235 22.134C39.3243 22.5051 39.2018 22.8982 39.1564 23.313C39.1169 23.7237 39.149 24.1333 39.2516 24.542C39.3547 24.9507 39.5102 25.3164 39.7188 25.6387C39.9435 25.9865 40.2366 26.2944 40.5982 26.5626C40.9557 26.8245 41.3434 27.022 41.7616 27.1553C42.1794 27.2886 42.6034 27.3414 43.034 27.3142C43.4709 27.2825 43.8789 27.1444 44.2582 26.8992Z" fill="white"/>
<path d="M55.3054 21.4743L55.3586 21.4561C55.4158 21.4365 55.4596 21.4018 55.4903 21.3518C55.5183 21.2942 55.5371 21.2322 55.5463 21.1655C55.5623 21.0963 55.5665 21.0273 55.5589 20.9582C55.5585 20.887 55.5487 20.8228 55.5291 20.7657L53.5808 15.0471C53.5636 14.9974 53.5336 14.9441 53.4904 14.8869C53.4544 14.8278 53.4087 14.7756 53.3535 14.7308C53.3055 14.6836 53.2542 14.6492 53.1993 14.6285C53.1422 14.6001 53.085 14.5957 53.0278 14.6153L52.9743 14.6334L52.9379 14.5263L54.4771 14.0021L54.5135 14.1088L54.4603 14.1271C54.4031 14.1466 54.3607 14.1851 54.3324 14.2422C54.3019 14.2926 54.2818 14.3509 54.273 14.4177C54.2638 14.4845 54.2596 14.5535 54.26 14.625C54.2676 14.6938 54.28 14.7534 54.2968 14.8033L56.3399 20.7998L58.6811 20.0019C58.8162 19.9559 58.9228 19.8837 59.0007 19.7858C59.0787 19.6874 59.1338 19.5812 59.1666 19.4666C59.2038 19.3426 59.2184 19.2222 59.2107 19.1059C59.2075 18.9796 59.1901 18.8703 59.1586 18.7775L59.2653 18.7411L59.7243 20.088L55.3418 21.5811L55.3054 21.4743Z" fill="white"/>
<path d="M67.7198 18.2896L67.7758 18.2836C67.8356 18.2773 67.8862 18.2534 67.9272 18.2114C67.9674 18.1616 67.9994 18.1054 68.0233 18.0422C68.0545 17.9786 68.0743 17.9123 68.0823 17.8431C68.0976 17.7734 68.1023 17.7087 68.0961 17.6488L67.4736 11.6397C67.4681 11.5872 67.4507 11.5284 67.4213 11.4634C67.3992 11.3974 67.3664 11.3365 67.3228 11.2804C67.2868 11.2239 67.2441 11.179 67.1952 11.1461C67.1459 11.106 67.0909 11.089 67.031 11.0952L66.9751 11.1009L66.9634 10.9885L68.5808 10.8208L68.5924 10.9331L68.5361 10.9391C68.4762 10.9454 68.4262 10.9732 68.386 11.0229C68.345 11.065 68.3124 11.1173 68.2889 11.1805C68.265 11.2436 68.2453 11.3096 68.2299 11.3797C68.2219 11.4485 68.2205 11.5091 68.2259 11.5616L68.8787 17.863L71.3387 17.608C71.4811 17.5931 71.6011 17.5468 71.699 17.4684C71.7969 17.3905 71.8743 17.2989 71.9315 17.1945C71.9955 17.082 72.037 16.9682 72.0551 16.8525C72.08 16.7287 72.0875 16.6184 72.0775 16.5211L72.1898 16.5094L72.3364 17.9245L67.7314 18.4019L67.7198 18.2896Z" fill="white"/>
<path d="M91.3101 19.7918L91.3635 19.8097C91.4136 19.826 91.4673 19.82 91.5243 19.7913C91.5813 19.7626 91.6335 19.7244 91.681 19.6769C91.7358 19.6315 91.781 19.579 91.8165 19.5195C91.8542 19.4526 91.8829 19.3906 91.9017 19.3336L93.7916 13.6189C93.8082 13.5692 93.8198 13.5096 93.8271 13.4403C93.8339 13.3713 93.8326 13.3035 93.8227 13.237C93.8133 13.1703 93.7928 13.1118 93.7619 13.0621C93.7332 13.0051 93.69 12.967 93.633 12.9482L93.5793 12.9302L93.6148 12.8231L95.6841 13.5077C96.2486 13.6944 96.7228 13.962 97.1071 14.311C97.4934 14.6532 97.7851 15.0429 97.9813 15.4806C98.1869 15.9132 98.3011 16.3714 98.3235 16.8545C98.3462 17.3376 98.2806 17.8115 98.1268 18.2762C97.9826 18.7122 97.7625 19.1149 97.4657 19.4846C97.1711 19.8473 96.8123 20.1407 96.3891 20.3656C95.9659 20.5905 95.4842 20.7283 94.9441 20.7798C94.4061 20.824 93.826 20.7431 93.2041 20.5375L91.2746 19.8992L91.3101 19.7918ZM97.3447 18.196C97.4959 17.7386 97.5569 17.2788 97.5272 16.8171C97.4976 16.3554 97.3822 15.9248 97.1813 15.5252C96.9898 15.1209 96.7199 14.762 96.3717 14.4486C96.0307 14.1377 95.6242 13.9041 95.1527 13.7479L94.6055 13.5672L92.5137 19.8925L93.0818 20.0804C93.4677 20.2084 93.8725 20.2786 94.2965 20.2918C94.7299 20.3004 95.1438 20.2354 95.5387 20.0962C95.9357 19.95 96.2926 19.7232 96.6083 19.4152C96.9316 19.1099 97.177 18.7032 97.3447 18.196Z" fill="white"/>
<path d="M111.994 21.1916C112.484 21.5151 112.866 21.8934 113.139 22.3266C113.417 22.7535 113.593 23.2035 113.668 23.6771C113.754 24.1487 113.74 24.627 113.628 25.1117C113.526 25.5944 113.335 26.0463 113.058 26.4673C112.746 26.9387 112.372 27.314 111.935 27.5935C111.504 27.8774 111.045 28.061 110.556 28.1445C110.068 28.2282 109.569 28.219 109.059 28.117C108.56 28.0127 108.084 27.8113 107.631 27.5126C107.148 27.193 106.769 26.817 106.496 26.3839C106.229 25.9551 106.055 25.5066 105.976 25.0393C105.903 24.5763 105.919 24.1085 106.023 23.6361C106.127 23.1639 106.315 22.7234 106.584 22.3152C106.849 21.9129 107.183 21.5649 107.585 21.2708C107.991 20.9704 108.433 20.7574 108.913 20.6323C109.399 20.511 109.905 20.489 110.432 20.566C110.958 20.643 111.479 20.8515 111.994 21.1916ZM107.972 27.2636C108.405 27.5227 108.835 27.671 109.261 27.709C109.698 27.7446 110.11 27.701 110.498 27.5779C110.889 27.4489 111.241 27.2575 111.553 27.0034C111.872 26.7536 112.135 26.4715 112.342 26.1574C112.57 25.8118 112.738 25.4217 112.844 24.9868C112.951 24.5522 112.981 24.1166 112.936 23.6804C112.894 23.2378 112.768 22.8209 112.557 22.4294C112.357 22.0357 112.056 21.7062 111.654 21.4405C111.264 21.1835 110.858 21.0411 110.434 21.0138C110.014 20.9802 109.605 21.0258 109.207 21.1509C108.814 21.2798 108.452 21.4735 108.119 21.7319C107.786 21.9902 107.514 22.2797 107.303 22.6C107.074 22.9456 106.91 23.3377 106.81 23.7766C106.714 24.2092 106.688 24.6437 106.734 25.0799C106.78 25.5162 106.902 25.9257 107.1 26.3093C107.304 26.6964 107.595 27.0149 107.972 27.2636Z" fill="white"/>
<path d="M128.427 36.9016C128.33 36.7868 128.198 36.7307 128.032 36.7335C127.867 36.736 127.714 36.772 127.575 36.8406L121.082 39.6647L124.173 34.7234L118.791 36.9881L122.614 31.0242C122.698 30.9029 122.76 30.7612 122.8 30.5988C122.845 30.4421 122.828 30.3181 122.75 30.2263L122.836 30.153L123.875 31.3747L123.789 31.4479C123.726 31.3734 123.641 31.3369 123.534 31.339C123.437 31.3419 123.343 31.3824 123.251 31.4606C123.223 31.485 123.19 31.5222 123.154 31.5729L120.458 35.7927L125.836 33.5758L122.749 38.4693L127.353 36.5103C127.365 36.5006 127.39 36.484 127.43 36.4604C127.479 36.4379 127.516 36.4165 127.539 36.397C127.619 36.329 127.663 36.2524 127.669 36.1674C127.682 36.0776 127.669 36.0099 127.63 35.964L127.716 35.8908L128.513 36.8284L128.427 36.9016Z" fill="white"/>
<path d="M127.74 49.7396L127.764 49.7909L127.661 49.8386L127.133 48.7019L127.235 48.6542L127.259 48.7055C127.281 48.7532 127.323 48.788 127.382 48.8099C127.446 48.8387 127.511 48.8542 127.578 48.8562C127.646 48.8579 127.713 48.8516 127.781 48.8366C127.859 48.8253 127.925 48.807 127.979 48.7814L133.437 46.2439C133.485 46.2215 133.536 46.1893 133.591 46.147C133.65 46.1117 133.7 46.0679 133.742 46.015C133.784 45.9624 133.81 45.9043 133.822 45.8406C133.841 45.7737 133.835 45.7062 133.803 45.6378L133.779 45.5868L133.881 45.5391L134.362 46.5732L130.234 53.0137L135.456 50.5854C135.504 50.563 135.553 50.5276 135.605 50.4784C135.66 50.4361 135.707 50.3854 135.746 50.3259C135.788 50.273 135.817 50.2185 135.832 50.1617C135.854 50.1017 135.852 50.0441 135.826 49.9895L135.803 49.9385L135.905 49.8908L136.438 51.0377L136.336 51.0854L136.312 51.0341C136.287 50.9795 136.244 50.9411 136.184 50.9191C136.131 50.894 136.069 50.8772 135.998 50.8686C135.931 50.8665 135.864 50.8732 135.796 50.8882C135.728 50.9028 135.67 50.9215 135.623 50.9436L129.499 53.791L129.204 53.1562L133.358 46.7166L128.146 49.1399C128.092 49.1652 128.033 49.2006 127.971 49.2461C127.916 49.2884 127.868 49.3358 127.826 49.3883C127.787 49.4482 127.757 49.5077 127.735 49.5677C127.713 49.6277 127.715 49.685 127.74 49.7396Z" fill="white"/>
<path d="M135.416 73.1877L136.432 73.1527L136.472 74.3037L135.456 74.3387L135.416 73.1877Z" fill="white"/>
<path d="M131.266 98.8618C130.912 98.7313 130.635 98.5485 130.433 98.3135C130.238 98.0809 130.104 97.823 130.032 97.5396C129.958 97.2635 129.938 96.9709 129.971 96.6624C130.002 96.3611 130.069 96.0725 130.171 95.7969C130.275 95.5145 130.393 95.2813 130.525 95.0975C130.657 94.9134 130.779 94.7457 130.891 94.5945C130.968 94.4949 131.035 94.4028 131.09 94.3187C131.152 94.2375 131.2 94.1508 131.234 94.0591L132.441 94.5049L132.402 94.6111C132.134 94.5118 131.894 94.4994 131.682 94.5736C131.474 94.6575 131.294 94.7754 131.142 94.9277C130.989 95.08 130.865 95.2428 130.769 95.4161C130.68 95.592 130.619 95.7221 130.588 95.807C130.476 96.1103 130.422 96.3874 130.426 96.6378C130.437 96.8903 130.487 97.1135 130.576 97.3069C130.672 97.5032 130.797 97.6655 130.95 97.7943C131.1 97.93 131.267 98.0319 131.451 98.0997C131.684 98.1856 131.896 98.2081 132.088 98.1664C132.287 98.1276 132.477 98.049 132.657 97.9311C132.834 97.82 133.003 97.6777 133.163 97.5041C133.324 97.3309 133.485 97.1537 133.648 96.9732C133.829 96.7672 134.012 96.5656 134.197 96.3693C134.381 96.1726 134.578 96.0088 134.787 95.8771C135.004 95.7484 135.231 95.664 135.471 95.6238C135.717 95.5865 135.989 95.6228 136.286 95.7322C136.596 95.8471 136.843 96.006 137.024 96.2096C137.213 96.4158 137.345 96.645 137.42 96.8977C137.493 97.1571 137.517 97.4272 137.494 97.7076C137.475 97.9973 137.416 98.2767 137.317 98.545C137.249 98.7285 137.171 98.8964 137.083 99.0484C137.002 99.2029 136.916 99.3481 136.826 99.4831C136.754 99.5928 136.686 99.7002 136.623 99.8053C136.567 99.9133 136.52 100.02 136.481 100.126L135.39 99.7227L135.429 99.6169C135.801 99.7384 136.102 99.6849 136.331 99.4565C136.566 99.2306 136.774 98.8741 136.954 98.3869C137.059 98.1045 137.095 97.8531 137.064 97.633C137.038 97.4223 136.973 97.2382 136.871 97.0802C136.776 96.9247 136.655 96.7956 136.508 96.6932C136.366 96.6005 136.235 96.5323 136.115 96.4877C135.917 96.4148 135.732 96.3944 135.559 96.427C135.384 96.4666 135.216 96.541 135.056 96.6503C134.895 96.7596 134.737 96.894 134.582 97.0531C134.424 97.2195 134.267 97.3943 134.111 97.5777C133.931 97.7838 133.742 97.9909 133.545 98.1988C133.348 98.407 133.136 98.5775 132.91 98.7109C132.682 98.8512 132.433 98.9398 132.162 98.9763C131.889 99.02 131.59 98.9818 131.266 98.8618Z" fill="white"/>
<path d="M129.267 113.11C129.58 112.648 129.767 112.189 129.831 111.733C129.897 111.286 129.871 110.86 129.755 110.454C129.645 110.053 129.463 109.684 129.208 109.348C128.949 109.019 128.658 108.744 128.333 108.525C127.966 108.276 127.555 108.103 127.103 108.006C126.657 107.913 126.212 107.899 125.769 107.963C125.328 108.037 124.909 108.186 124.513 108.408C124.123 108.635 123.796 108.945 123.53 109.338C123.454 109.45 123.378 109.59 123.302 109.756C123.221 109.929 123.164 110.114 123.132 110.31C123.105 110.51 123.115 110.717 123.162 110.93C123.205 111.149 123.308 111.365 123.474 111.577L123.411 111.671L122.373 110.969C122.436 110.875 122.491 110.767 122.538 110.644C122.58 110.527 122.628 110.396 122.681 110.25C122.747 110.059 122.829 109.85 122.927 109.625C123.02 109.407 123.14 109.188 123.288 108.97C123.655 108.428 124.071 108.014 124.536 107.729C125.002 107.444 125.477 107.265 125.962 107.194C126.447 107.122 126.923 107.143 127.39 107.259C127.863 107.379 128.293 107.57 128.679 107.832C129.066 108.093 129.403 108.421 129.691 108.816C129.978 109.21 130.177 109.649 130.286 110.132C130.402 110.619 130.41 111.138 130.311 111.689C130.211 112.239 129.967 112.802 129.579 113.375C129.44 113.581 129.297 113.752 129.149 113.889C128.998 114.032 128.86 114.156 128.734 114.262C128.639 114.335 128.557 114.402 128.488 114.464C128.421 114.537 128.362 114.61 128.311 114.685L127.273 113.983L127.336 113.889C127.555 113.983 127.76 114.022 127.952 114.006C128.151 113.995 128.331 113.944 128.492 113.853C128.649 113.769 128.793 113.657 128.923 113.518C129.056 113.389 129.17 113.253 129.267 113.11Z" fill="white"/>
<path d="M115.584 118.211L115.542 118.248L115.467 118.165L116.649 117.098L116.725 117.182L116.683 117.22C116.644 117.255 116.622 117.305 116.619 117.368C116.616 117.432 116.623 117.497 116.641 117.561C116.653 117.631 116.677 117.697 116.711 117.757C116.75 117.823 116.79 117.878 116.83 117.923L120.861 122.393C120.897 122.432 120.943 122.471 120.999 122.512C121.056 122.552 121.118 122.582 121.186 122.601C121.249 122.626 121.31 122.637 121.369 122.635C121.432 122.638 121.484 122.622 121.523 122.587L121.565 122.549L121.64 122.633L120.181 123.949C119.622 124.453 119.094 124.732 118.595 124.786C118.091 124.845 117.647 124.663 117.264 124.238C117.073 124.025 116.94 123.805 116.866 123.578C116.792 123.361 116.761 123.14 116.773 122.917C116.789 122.7 116.846 122.481 116.942 122.262C117.038 122.054 117.161 121.853 117.309 121.658L115.874 121.28C115.527 121.187 115.179 121.1 114.832 121.018C114.489 120.942 114.142 120.855 113.79 120.756C113.7 120.736 113.605 120.715 113.505 120.694C113.399 120.678 113.299 120.667 113.203 120.662C113.102 120.662 113.008 120.671 112.922 120.688C112.835 120.715 112.761 120.757 112.7 120.812L112.624 120.728L112.984 120.403C113.208 120.201 113.44 120.088 113.682 120.063C113.922 120.049 114.156 120.072 114.382 120.131C114.966 120.273 115.555 120.421 116.15 120.574C116.739 120.733 117.322 120.885 117.901 121.033C117.968 120.983 118.04 120.928 118.118 120.868C118.195 120.818 118.269 120.772 118.341 120.727L116.268 118.43C116.228 118.385 116.177 118.34 116.116 118.294C116.059 118.254 115.999 118.221 115.937 118.197C115.868 118.177 115.805 118.163 115.747 118.155C115.683 118.152 115.629 118.17 115.584 118.211ZM120.511 123.134L118.59 121.004L118.548 121.042C118.499 121.077 118.424 121.134 118.324 121.214C118.223 121.305 118.1 121.416 117.955 121.547C117.837 121.653 117.729 121.781 117.631 121.93C117.532 122.09 117.465 122.263 117.428 122.447C117.392 122.643 117.4 122.843 117.453 123.048C117.501 123.259 117.621 123.47 117.812 123.682C118.004 123.895 118.202 124.03 118.407 124.089C118.606 124.152 118.814 124.158 119.03 124.105C119.24 124.057 119.459 123.957 119.685 123.803C119.912 123.649 120.145 123.464 120.385 123.247L120.511 123.134Z" fill="white"/>
<path d="M105.807 134.132C105.285 134.401 104.769 134.549 104.257 134.575C103.749 134.608 103.27 134.541 102.82 134.375C102.367 134.219 101.957 133.973 101.589 133.637C101.219 133.311 100.918 132.924 100.687 132.476C100.428 131.974 100.284 131.464 100.254 130.946C100.218 130.431 100.283 129.94 100.449 129.474C100.615 129.007 100.868 128.577 101.206 128.182C101.542 127.798 101.951 127.481 102.433 127.233C102.948 126.968 103.461 126.822 103.973 126.796C104.478 126.773 104.953 126.841 105.399 127.001C105.839 127.164 106.239 127.407 106.6 127.729C106.961 128.051 107.253 128.43 107.477 128.865C107.698 129.294 107.838 129.755 107.898 130.249C107.961 130.75 107.93 131.24 107.804 131.72C107.672 132.203 107.443 132.655 107.118 133.076C106.793 133.498 106.356 133.85 105.807 134.132ZM102.483 127.652C102.045 127.903 101.705 128.205 101.463 128.558C101.219 128.921 101.055 129.302 100.972 129.7C100.893 130.105 100.887 130.506 100.956 130.902C101.018 131.302 101.135 131.669 101.307 132.004C101.497 132.372 101.755 132.709 102.082 133.015C102.409 133.321 102.774 133.561 103.176 133.734C103.583 133.915 104.008 134.009 104.452 134.017C104.894 134.036 105.329 133.934 105.757 133.714C106.172 133.5 106.495 133.215 106.727 132.859C106.961 132.509 107.122 132.13 107.208 131.722C107.287 131.317 107.296 130.906 107.234 130.489C107.172 130.073 107.053 129.693 106.877 129.352C106.687 128.984 106.426 128.649 106.092 128.346C105.762 128.051 105.396 127.816 104.993 127.642C104.59 127.469 104.173 127.374 103.742 127.359C103.304 127.347 102.885 127.445 102.483 127.652Z" fill="white"/>
<path d="M91.1198 131.947L91.0647 131.96C91.0061 131.973 90.9592 132.004 90.9235 132.05C90.8899 132.105 90.865 132.164 90.8495 132.23C90.8262 132.297 90.8149 132.365 90.8156 132.435C90.8088 132.506 90.8124 132.571 90.8261 132.629L92.1904 138.515C92.2024 138.566 92.227 138.622 92.2643 138.683C92.2941 138.746 92.3343 138.802 92.3846 138.852C92.4273 138.904 92.4753 138.943 92.5278 138.97C92.5819 139.004 92.6383 139.014 92.6969 139L92.7519 138.987L92.7776 139.097L91.1933 139.464L91.168 139.355L91.223 139.342C91.2816 139.328 91.3279 139.294 91.3616 139.24C91.3972 139.193 91.4227 139.137 91.4386 139.072C91.4541 139.006 91.4654 138.938 91.4722 138.867C91.4715 138.797 91.4653 138.737 91.4533 138.686L90.0227 132.514L87.6136 133.073C87.4743 133.105 87.361 133.166 87.2736 133.256C87.1862 133.346 87.1205 133.446 87.0765 133.557C87.027 133.676 87.0005 133.795 86.9967 133.911C86.987 134.037 86.9932 134.148 87.0153 134.243L86.9056 134.269L86.5841 132.882L91.0945 131.837L91.1198 131.947Z" fill="white"/>
<path d="M78.2897 133.934L78.233 133.935C78.1729 133.935 78.1203 133.954 78.0754 133.992C78.0301 134.037 77.9929 134.09 77.9629 134.15C77.9257 134.211 77.8994 134.275 77.8848 134.343C77.8625 134.41 77.8514 134.474 77.8515 134.535L77.8754 140.576C77.8755 140.629 77.887 140.689 77.91 140.756C77.925 140.824 77.952 140.888 77.9898 140.948C78.0199 141.008 78.0578 141.057 78.103 141.094C78.1487 141.139 78.2014 141.162 78.2615 141.162L78.3182 141.161L78.3183 141.274L76.6925 141.281L76.692 141.168L76.7483 141.168C76.8084 141.167 76.8611 141.145 76.9061 141.099C76.9514 141.061 76.9889 141.012 77.0184 140.952C77.0484 140.892 77.0747 140.828 77.0969 140.76C77.1116 140.692 77.1191 140.632 77.1187 140.579L77.0939 134.244L74.6208 134.254C74.4777 134.254 74.3538 134.289 74.2486 134.357C74.1434 134.425 74.0573 134.508 73.99 134.606C73.9151 134.712 73.8626 134.821 73.833 134.934C73.796 135.055 73.7776 135.164 73.7777 135.262L73.6651 135.263L73.6592 133.84L78.2892 133.821L78.2897 133.934Z" fill="white"/>
<path d="M54.9549 130.156L54.903 130.133C54.8551 130.112 54.801 130.113 54.7415 130.136C54.6819 130.159 54.6262 130.191 54.5741 130.234C54.5151 130.274 54.4653 130.322 54.4239 130.378C54.3795 130.44 54.3452 130.499 54.3206 130.554L51.8749 136.054C51.8535 136.102 51.8361 136.16 51.8221 136.228C51.8086 136.296 51.803 136.364 51.8063 136.431C51.8092 136.498 51.8238 136.558 51.8497 136.611C51.8727 136.67 51.9116 136.713 51.9666 136.737L52.0181 136.76L51.9725 136.863L49.981 135.978C49.4377 135.736 48.9921 135.422 48.6443 135.037C48.2936 134.659 48.0423 134.242 47.89 133.787C47.728 133.336 47.66 132.869 47.6851 132.386C47.7103 131.903 47.8226 131.438 48.0213 130.991C48.2078 130.571 48.4671 130.192 48.7989 129.854C49.1279 129.522 49.5138 129.265 49.957 129.083C50.4006 128.901 50.8937 128.812 51.4364 128.814C51.9758 128.823 52.545 128.961 53.1434 129.227L55.0005 130.053L54.9549 130.156ZM48.7916 131.148C48.5962 131.588 48.49 132.04 48.4739 132.502C48.4578 132.964 48.5301 133.404 48.6904 133.822C48.8407 134.243 49.0739 134.627 49.3897 134.973C49.6983 135.316 50.0797 135.589 50.5337 135.791L51.0599 136.025L53.7668 129.937L53.2203 129.694C52.8485 129.529 52.4528 129.419 52.0322 129.363C51.6019 129.312 51.1836 129.336 50.7769 129.435C50.367 129.542 49.9898 129.732 49.645 130.007C49.2934 130.279 49.0088 130.66 48.7916 131.148Z" fill="white"/>
<path d="M34.5127 126.74C34.0574 126.369 33.7153 125.954 33.4867 125.496C33.253 125.044 33.1224 124.578 33.0945 124.1C33.0565 123.622 33.1177 123.147 33.278 122.676C33.428 122.206 33.662 121.775 33.9805 121.384C34.3368 120.946 34.7466 120.61 35.2096 120.375C35.6668 120.136 36.1424 119.999 36.6363 119.964C37.1307 119.93 37.6261 119.989 38.1233 120.141C38.61 120.295 39.0635 120.543 39.4837 120.885C39.9331 121.251 40.2726 121.663 40.5012 122.121C40.7244 122.575 40.8519 123.038 40.8845 123.511C40.9109 123.979 40.8486 124.443 40.6979 124.902C40.5468 125.362 40.3171 125.781 40.0079 126.161C39.7037 126.535 39.3371 126.848 38.9081 127.1C38.4744 127.359 38.0127 127.526 37.5229 127.603C37.0274 127.675 36.5215 127.647 36.005 127.518C35.4889 127.389 34.9914 127.129 34.5127 126.74ZM39.1203 121.099C38.7151 120.798 38.3021 120.607 37.882 120.527C37.4511 120.448 37.0366 120.451 36.6387 120.534C36.2357 120.624 35.8662 120.779 35.5306 121.001C35.1888 121.218 34.8991 121.472 34.6614 121.764C34.4002 122.085 34.1948 122.457 34.0453 122.879C33.8958 123.301 33.8219 123.731 33.8241 124.169C33.8216 124.614 33.9055 125.041 34.076 125.452C34.2359 125.864 34.5025 126.222 34.876 126.526C35.238 126.821 35.6287 127.003 36.0476 127.072C36.4624 127.147 36.8737 127.143 37.2824 127.058C37.6854 126.969 38.0653 126.812 38.4222 126.588C38.7794 126.364 39.0791 126.104 39.3215 125.806C39.5827 125.485 39.7854 125.111 39.9291 124.684C40.0678 124.263 40.1363 123.833 40.1341 123.395C40.132 122.956 40.0515 122.536 39.8926 122.135C39.728 121.729 39.4707 121.384 39.1203 121.099Z" fill="white"/>
<path d="M19.6924 109.519C19.7785 109.642 19.904 109.711 20.069 109.724C20.2343 109.738 20.3894 109.717 20.5345 109.663L27.2727 107.488L23.7127 112.103L29.2907 110.376L24.9022 115.937C24.8063 116.049 24.7306 116.184 24.6749 116.342C24.6152 116.494 24.6197 116.619 24.6884 116.718L24.5955 116.782L23.6812 115.465L23.7741 115.4C23.8299 115.481 23.911 115.525 24.0178 115.534C24.1138 115.54 24.2114 115.509 24.3106 115.441C24.3415 115.419 24.3775 115.385 24.4181 115.338L27.5149 111.403L21.9455 113.082L25.4969 108.514L20.7227 110.013C20.7105 110.022 20.6837 110.036 20.6421 110.055C20.5905 110.073 20.5519 110.09 20.5274 110.108C20.4408 110.168 20.3898 110.24 20.3748 110.323C20.3534 110.411 20.3599 110.48 20.3942 110.53L20.3013 110.594L19.5999 109.583L19.6924 109.519Z" fill="white"/>
<path d="M21.6786 96.9897L21.66 96.9368L21.7666 96.8988L22.1838 98.0809L22.0773 98.1185L22.0587 98.0653C22.0411 98.0156 22.0036 97.977 21.946 97.9494C21.8855 97.9148 21.8221 97.8933 21.7552 97.8849C21.6887 97.8766 21.6207 97.8766 21.5518 97.885C21.4733 97.8888 21.4058 97.9007 21.3489 97.9208L15.6736 99.9251C15.6239 99.9426 15.5698 99.9698 15.511 100.007C15.4493 100.036 15.3954 100.075 15.3485 100.124C15.3016 100.172 15.2694 100.228 15.2517 100.29C15.2264 100.354 15.2266 100.422 15.2514 100.493L15.2704 100.547L15.1639 100.584L14.7842 99.5088L19.5095 93.4924L14.0793 95.4106C14.0296 95.4282 13.9766 95.4586 13.9201 95.5026C13.8612 95.5394 13.8097 95.5857 13.7653 95.6409C13.7188 95.6894 13.6851 95.7412 13.6646 95.7964C13.637 95.8541 13.6333 95.9114 13.6533 95.9682L13.6723 96.0211L13.5658 96.0587L13.1443 94.8663L13.2509 94.8287L13.2699 94.882C13.2898 94.9388 13.3287 94.9809 13.3863 95.0086C13.4368 95.0386 13.4966 95.0613 13.5659 95.0765C13.6328 95.085 13.7008 95.0852 13.7697 95.0769C13.8386 95.0685 13.8979 95.0553 13.9476 95.0377L20.315 92.7889L20.5481 93.4493L15.7974 99.4622L21.2172 97.5479C21.274 97.5279 21.3353 97.4983 21.4014 97.4591C21.4603 97.4223 21.5132 97.3797 21.5597 97.3312C21.6042 97.2756 21.64 97.2191 21.6677 97.1615C21.695 97.1038 21.699 97.0466 21.6786 96.9897Z" fill="white"/>
<path d="M15.2104 79.0509L14.1961 78.9883L14.2666 77.8386L15.2809 77.9012L15.2104 79.0509Z" fill="white"/>
</g>
<defs>
<clipPath id="clip0_216_2438">
<rect width="134.002" height="134.002" fill="white" transform="translate(132.645 151.665) rotate(-171.84)"/>
</clipPath>
</defs>
</svg>
