<svg width="22" height="22" viewBox="0 0 22 22" fill="none" xmlns="http://www.w3.org/2000/svg">
<g clip-path="url(#clip0_6008_2453)">
<path d="M11.9166 19.25C13.0624 19.25 14.0365 18.8491 14.8389 18.0473C15.6413 17.2456 16.0422 16.2714 16.0416 15.125C16.041 13.9786 15.6401 13.0048 14.8389 12.2036C14.0378 11.4024 13.0636 11.0012 11.9166 11C10.7695 10.9988 9.79572 11.4 8.99517 12.2036C8.19461 13.0072 7.79342 13.981 7.79159 15.125C7.78975 16.269 8.19095 17.2431 8.99517 18.0473C9.79939 18.8516 10.7732 19.2524 11.9166 19.25ZM11.9166 17.6C11.2291 17.6 10.6449 17.3592 10.1639 16.8777C9.68297 16.3961 9.4422 15.8119 9.44159 15.125C9.44097 14.4381 9.68175 13.8539 10.1639 13.3723C10.6461 12.8908 11.2303 12.65 11.9166 12.65C12.6029 12.65 13.1874 12.8908 13.6702 13.3723C14.1529 13.8539 14.3934 14.4381 14.3916 15.125C14.3898 15.8119 14.1493 16.3964 13.6702 16.8786C13.1911 17.3608 12.6065 17.6012 11.9166 17.6ZM11.9166 22C9.68603 22 7.65408 21.3776 5.82075 20.1328C3.98742 18.8879 2.65825 17.2187 1.83325 15.125C2.65825 13.0319 3.98742 11.363 5.82075 10.1182C7.65408 8.87333 9.68603 8.25061 11.9166 8.25C14.1471 8.24939 16.1791 8.87211 18.0124 10.1182C19.8458 11.3642 21.1749 13.0332 21.9999 15.125C21.1749 17.2181 19.8458 18.8873 18.0124 20.1328C16.1791 21.3782 14.1471 22.0006 11.9166 22ZM11.9166 20.1667C13.643 20.1667 15.2282 19.7123 16.6723 18.8036C18.1163 17.8949 19.22 16.6687 19.9833 15.125C19.2194 13.5819 18.1154 12.3561 16.6713 11.4473C15.2273 10.5386 13.6424 10.0839 11.9166 10.0833C10.1908 10.0827 8.60589 10.5374 7.16184 11.4473C5.71778 12.3573 4.61381 13.5832 3.84992 15.125C4.61381 16.6681 5.71778 17.8943 7.16184 18.8036C8.60589 19.7129 10.1908 20.1673 11.9166 20.1667Z" fill="#8C8C8C"/>
</g>
<defs>
<clipPath id="clip0_6008_2453">
<rect width="22" height="22" fill="white"/>
</clipPath>
</defs>
</svg>
